<svg width="133" height="131" viewBox="0 0 133 131" fill="none" xmlns="http://www.w3.org/2000/svg">
<path d="M125.507 59.5664L128.007 62.1714L124.689 63.595C120.173 65.5324 109.455 72.6535 104.182 85.0147C103.644 86.2761 103.128 87.5119 102.622 88.7232C99.9158 95.1991 97.5027 100.974 93.6383 106.209C88.9646 112.54 82.2673 117.998 70.6719 123.575C51.2592 132.91 31.4964 123.534 22.7044 116.957C18.4416 113.768 13.635 110.126 9.89632 107.282C8.0265 105.86 6.42281 104.637 5.28649 103.77C4.71832 103.336 4.26696 102.991 3.95756 102.754L3.60306 102.483L3.51154 102.413L3.48826 102.395L3.48235 102.391L3.48086 102.39L3.48048 102.389C3.48038 102.389 3.48034 102.389 5 100.404L3.48034 102.389L5.91891 98.0791C9.93874 99.6678 16.7642 101.602 23.9813 102.163C31.2567 102.729 38.5049 101.869 43.752 98.3312C47.9673 95.4892 50.7484 93.3465 52.5343 91.7785C50.3097 91.7847 47.9346 91.6498 45.7888 91.2703C43.8395 90.9255 41.8077 90.3347 40.2547 89.2561C38.5686 88.0851 37.3312 86.2161 37.6511 83.7166C37.8276 82.3375 37.9797 81.1341 38.1096 80.0953C35.5998 80.5038 33.0422 79.4323 30.8019 76.7798C27.7746 73.1951 27.5912 69.2528 28.5906 66.2031C28.8814 65.3157 29.2735 64.4958 29.7283 63.7707C29.1976 63.5904 28.6418 63.3924 28.0801 63.1771C26.3018 62.4952 24.2703 61.5688 22.6577 60.3335C21.0887 59.1315 19.4207 57.2399 19.5218 54.6081C19.576 53.1965 19.6473 51.8088 19.8552 50.5838C20.063 49.3596 20.4425 48.0593 21.2756 46.9501C21.2932 46.9267 21.3108 46.9036 21.3286 46.8806C20.3399 46.5053 19.3762 46.086 18.521 45.6228C17.5933 45.1203 16.6207 44.4759 15.8923 43.6459C15.138 42.7864 14.4606 41.4908 14.7642 39.9088C14.8357 39.5364 14.9123 39.0939 14.9912 38.6383C15.1068 37.97 15.2274 37.2734 15.344 36.7278C15.5644 35.6963 15.887 34.5395 16.5281 33.4837C16.9257 32.8288 17.4026 32.2767 17.9576 31.8173C17.7762 31.7248 17.5929 31.6295 17.4083 31.5312C12.0652 28.6863 5.20198 23.1913 3.61947 12.7903C3.26494 10.4602 3.02391 8.68012 2.92104 7.40192C2.87006 6.76869 2.84558 6.1753 2.87563 5.66141C2.89713 5.29371 2.95997 4.40679 3.51122 3.6464C3.86294 3.16125 4.43756 2.69777 5.23222 2.54774C5.95559 2.41118 6.55407 2.59427 6.90305 2.74529C7.53563 3.01904 8.01793 3.48309 8.27604 3.74321C8.84818 4.31981 9.54086 5.19501 10.2451 6.08483L10.3151 6.17324C13.4261 10.1033 18.6158 16.6112 26.4143 19.6324C33.1461 22.2403 41.1881 24.7391 48.8392 27.1165C50.7477 27.7095 52.6319 28.2949 54.4654 28.8726C59.0234 30.3088 63.2743 31.6999 66.7277 33.0265C70.0667 34.3092 73.0327 35.6641 74.7188 37.1282C75.4863 37.7946 76.2429 38.423 76.985 39.0393C81.1122 42.4669 84.7921 45.523 87.4279 52.7059C88.837 56.546 89.7735 59.6236 90.3653 61.7524C90.7558 61.5046 91.1781 61.2268 91.6262 60.9173C93.9862 59.2872 97.0586 56.7784 99.9207 53.1545C101.795 50.7815 104.031 49.4825 106.369 48.9953C108.65 48.5199 110.845 48.8536 112.66 49.4177C114.48 49.9832 116.041 50.8176 117.129 51.4913C117.679 51.8317 118.123 52.1402 118.435 52.3684C118.591 52.4827 118.716 52.5775 118.805 52.647C118.849 52.6817 118.885 52.7101 118.912 52.7316L118.945 52.7583L118.956 52.7676L118.961 52.7712L118.963 52.7727C118.964 52.7734 118.964 52.7741 117.375 54.704L118.964 52.7741L119.077 52.8672L119.179 52.9729L125.507 59.5664ZM4.61299 7.15856C4.61306 7.15885 4.61784 7.16299 4.62715 7.17013C4.61758 7.16184 4.61292 7.15827 4.61299 7.15856ZM7.87915 5.84434C7.87812 5.84278 7.87412 5.86264 7.87025 5.90862C7.87824 5.86889 7.88018 5.8459 7.87915 5.84434Z" stroke="#173F39" stroke-width="5"/>
</svg>
