<svg width="130" height="130" viewBox="0 0 130 130" fill="none" xmlns="http://www.w3.org/2000/svg">
<path d="M60.1989 85.8927L81.8963 61.825L77.5876 57.0456L60.1989 76.3339L51.4276 66.6044L47.1188 71.3838L60.1989 85.8927ZM42.964 102.279C41.2713 102.279 39.8222 101.611 38.6168 100.274C37.4114 98.9366 36.8087 97.3292 36.8087 95.4516V47.6574C36.8087 45.7798 37.4114 44.1725 38.6168 42.8354C39.8222 41.4983 41.2713 40.8297 42.964 40.8297H86.0511C87.7438 40.8297 89.1929 41.4983 90.3983 42.8354C91.6037 44.1725 92.2064 45.7798 92.2064 47.6574V95.4516C92.2064 97.3292 91.6037 98.9366 90.3983 100.274C89.1929 101.611 87.7438 102.279 86.0511 102.279H42.964ZM42.964 95.4516H86.0511V47.6574H42.964V95.4516Z" fill="#1C4B36"/>
<path d="M86.6667 21.6667H97.5C100.373 21.6667 103.129 22.8081 105.16 24.8397C107.192 26.8714 108.333 29.6269 108.333 32.5V108.333C108.333 111.207 107.192 113.962 105.16 115.994C103.129 118.025 100.373 119.167 97.5 119.167H32.5C29.6268 119.167 26.8713 118.025 24.8397 115.994C22.8081 113.962 21.6667 111.207 21.6667 108.333V32.5C21.6667 29.6269 22.8081 26.8714 24.8397 24.8397C26.8713 22.8081 29.6268 21.6667 32.5 21.6667H43.3334M48.75 10.8334H81.25C84.2416 10.8334 86.6667 13.2585 86.6667 16.25V27.0834C86.6667 30.0749 84.2416 32.5 81.25 32.5H48.75C45.7585 32.5 43.3334 30.0749 43.3334 27.0834V16.25C43.3334 13.2585 45.7585 10.8334 48.75 10.8334Z" stroke="#1C4B36" stroke-width="4" stroke-linecap="round" stroke-linejoin="round"/>
</svg>
