<svg width="130" height="130" viewBox="0 0 130 130" fill="none" xmlns="http://www.w3.org/2000/svg">
<path d="M65 57.2184C61.8039 57.2184 59.0677 55.9186 56.7916 53.3189C54.5156 50.7193 53.3775 47.5942 53.3775 43.9437C53.3775 40.2932 54.5156 37.1681 56.7916 34.5685C59.0677 31.9689 61.8039 30.6691 65 30.6691C68.1962 30.6691 70.9324 31.9689 73.2084 34.5685C75.4845 37.1681 76.6226 40.2932 76.6226 43.9437C76.6226 47.5942 75.4845 50.7193 73.2084 53.3189C70.9324 55.9186 68.1962 57.2184 65 57.2184ZM41.755 83.7677V74.4754C41.755 72.5948 42.1787 70.8664 43.0262 69.29C43.8737 67.7136 44.9996 66.5106 46.404 65.681C49.4065 63.9663 52.4574 62.6803 55.5567 61.823C58.6561 60.9657 61.8039 60.537 65 60.537C68.1962 60.537 71.344 60.9657 74.4433 61.823C77.5427 62.6803 80.5936 63.9663 83.5961 65.681C85.0005 66.5106 86.1264 67.7136 86.9739 69.29C87.8213 70.8664 88.2451 72.5948 88.2451 74.4754V83.7677H41.755ZM47.5663 77.1303H82.4338V74.4754C82.4338 73.867 82.3006 73.3139 82.0343 72.8161C81.7679 72.3183 81.4169 71.9311 80.981 71.6545C78.3659 70.1611 75.7267 69.0411 73.0632 68.2944C70.3997 67.5477 67.712 67.1744 65 67.1744C62.2881 67.1744 59.6004 67.5477 56.9369 68.2944C54.2734 69.0411 51.6341 70.1611 49.0191 71.6545C48.5832 71.9311 48.2321 72.3183 47.9658 72.8161C47.6994 73.3139 47.5663 73.867 47.5663 74.4754V77.1303ZM65 50.581C66.5981 50.581 67.9662 49.9311 69.1042 48.6313C70.2423 47.3315 70.8113 45.769 70.8113 43.9437C70.8113 42.1185 70.2423 40.5559 69.1042 39.2561C67.9662 37.9563 66.5981 37.3064 65 37.3064C63.4019 37.3064 62.0339 37.9563 60.8958 39.2561C59.7578 40.5559 59.1888 42.1185 59.1888 43.9437C59.1888 45.769 59.7578 47.3315 60.8958 48.6313C62.0339 49.9311 63.4019 50.581 65 50.581Z" fill="#173F39"/>
<path d="M43.3334 113.75H86.6667M65 92.0833V113.75M21.6667 16.25H108.333C114.316 16.25 119.167 21.1002 119.167 27.0833V81.25C119.167 87.2331 114.316 92.0833 108.333 92.0833H21.6667C15.6836 92.0833 10.8334 87.2331 10.8334 81.25V27.0833C10.8334 21.1002 15.6836 16.25 21.6667 16.25Z" stroke="#1C4B36" stroke-width="4" stroke-linecap="round" stroke-linejoin="round"/>
<path d="M101.087 72.2095L108.405 79.7623M88.8907 59.6215L97.5137 80.9833L100.575 71.6808L109.588 68.5212L88.8907 59.6215Z" stroke="#1C4B36" stroke-width="4" stroke-linecap="round" stroke-linejoin="round"/>
</svg>
