<svg width="130" height="130" viewBox="0 0 130 130" fill="none" xmlns="http://www.w3.org/2000/svg">
<path d="M103.885 63.4185H107.903V55.1947H115.938V51.0828H107.903V42.8589H103.885V51.0828H95.8499V55.1947H103.885V63.4185ZM105.894 73.6983C103.115 73.6983 100.504 73.1672 98.0596 72.105C95.6155 71.0084 93.4895 69.535 91.6816 67.6846C89.8736 65.8343 88.434 63.6584 87.3626 61.157C86.3247 58.6555 85.8057 55.9828 85.8057 53.1387C85.8057 50.2946 86.3247 47.6219 87.3626 45.1205C88.434 42.619 89.8736 40.4432 91.6816 38.5928C93.4895 36.7424 95.6155 35.2861 98.0596 34.2239C100.504 33.1274 103.115 32.5791 105.894 32.5791C108.673 32.5791 111.284 33.1274 113.728 34.2239C116.173 35.2861 118.299 36.7424 120.107 38.5928C121.914 40.4432 123.337 42.619 124.375 45.1205C125.447 47.6219 125.982 50.2946 125.982 53.1387C125.982 55.9828 125.447 58.6555 124.375 61.157C123.337 63.6584 121.914 65.8343 120.107 67.6846C118.299 69.535 116.173 71.0084 113.728 72.105C111.284 73.1672 108.673 73.6983 105.894 73.6983ZM105.894 69.5864C110.38 69.5864 114.18 67.993 117.294 64.8063C120.408 61.6196 121.965 57.7304 121.965 53.1387C121.965 48.5471 120.408 44.6579 117.294 41.4711C114.18 38.2844 110.38 36.691 105.894 36.691C101.408 36.691 97.6076 38.2844 94.4939 41.4711C91.3802 44.6579 89.8234 48.5471 89.8234 53.1387C89.8234 57.7304 91.3802 61.6196 94.4939 64.8063C97.6076 67.993 101.408 69.5864 105.894 69.5864Z" fill="#1C4B36"/>
<path d="M61.1258 65C55.5226 65 50.7259 62.8784 46.7358 58.6354C42.7456 54.3923 40.7506 49.2916 40.7506 43.3333C40.7506 37.375 42.7456 32.2743 46.7358 28.0312C50.7259 23.7882 55.5226 21.6666 61.1258 21.6666C66.729 21.6666 71.5257 23.7882 75.5159 28.0312C79.506 32.2743 81.5011 37.375 81.5011 43.3333C81.5011 49.2916 79.506 54.3923 75.5159 58.6354C71.5257 62.8784 66.729 65 61.1258 65ZM20.3753 108.333V93.1666C20.3753 90.0972 21.1181 87.276 22.6038 84.7031C24.0895 82.1302 26.0634 80.1666 28.5254 78.8125C33.789 76.0139 39.1375 73.9149 44.5709 72.5156C50.0043 71.1163 55.5226 70.4166 61.1258 70.4166C66.729 70.4166 72.2473 71.1163 77.6807 72.5156C83.1141 73.9149 88.4627 76.0139 93.7263 78.8125C96.1883 80.1666 98.1621 82.1302 99.6478 84.7031C101.134 87.276 101.876 90.0972 101.876 93.1666V108.333H20.3753ZM30.5629 97.5H91.6887V93.1666C91.6887 92.1736 91.4553 91.2708 90.9883 90.4583C90.5214 89.6458 89.9059 89.0139 89.1418 88.5625C84.5574 86.125 79.9305 84.2968 75.2612 83.0781C70.5918 81.8593 65.8801 81.25 61.1258 81.25C56.3716 81.25 51.6598 81.8593 46.9905 83.0781C42.3211 84.2968 37.6943 86.125 33.1098 88.5625C32.3457 89.0139 31.7302 89.6458 31.2633 90.4583C30.7964 91.2708 30.5629 92.1736 30.5629 93.1666V97.5ZM61.1258 54.1666C63.9274 54.1666 66.3258 53.1059 68.3209 50.9843C70.3159 48.8628 71.3135 46.3125 71.3135 43.3333C71.3135 40.3541 70.3159 37.8038 68.3209 35.6823C66.3258 33.5607 63.9274 32.5 61.1258 32.5C58.3242 32.5 55.9259 33.5607 53.9308 35.6823C51.9357 37.8038 50.9382 40.3541 50.9382 43.3333C50.9382 46.3125 51.9357 48.8628 53.9308 50.9843C55.9259 53.1059 58.3242 54.1666 61.1258 54.1666Z" fill="#1C4B36"/>
</svg>
